<svg xmlns="http://www.w3.org/2000/svg" viewBox="0 0 800 450" fill="none">
  <defs>
    <linearGradient id="cardBg" x1="0%" y1="0%" x2="100%" y2="100%">
      <stop offset="0%" style="stop-color:#0f1012"/>
      <stop offset="100%" style="stop-color:#16181c"/>
    </linearGradient>
    <linearGradient id="accent1" x1="0%" y1="0%" x2="100%" y2="100%">
      <stop offset="0%" style="stop-color:#8b5cf6;stop-opacity:0.3"/>
      <stop offset="100%" style="stop-color:#a855f7;stop-opacity:0.1"/>
    </linearGradient>
  </defs>
  <rect width="800" height="450" fill="url(#cardBg)"/>
  <rect x="0" y="0" width="800" height="450" fill="url(#accent1)"/>
  
  <!-- PDF Document -->
  <g transform="translate(80, 80)">
    <rect width="120" height="150" rx="4" fill="#1e293b" stroke="#334155" stroke-width="1"/>
    <rect x="15" y="15" width="90" height="8" rx="2" fill="#475569"/>
    <rect x="15" y="30" width="70" height="6" rx="2" fill="#334155"/>
    <rect x="15" y="42" width="80" height="6" rx="2" fill="#334155"/>
    <rect x="15" y="54" width="60" height="6" rx="2" fill="#334155"/>
    <rect x="15" y="70" width="90" height="8" rx="2" fill="#475569"/>
    <rect x="15" y="85" width="75" height="6" rx="2" fill="#334155"/>
    <rect x="15" y="97" width="85" height="6" rx="2" fill="#334155"/>
    <rect x="15" y="109" width="65" height="6" rx="2" fill="#334155"/>
    <text x="60" y="140" text-anchor="middle" font-family="system-ui" font-size="10" fill="#8b5cf6">PDF</text>
  </g>
  
  <!-- Arrow -->
  <path d="M220 155 L280 155" stroke="#8b5cf6" stroke-width="2" stroke-dasharray="5,5"/>
  <polygon points="280,155 270,150 270,160" fill="#8b5cf6"/>
  
  <!-- LangChain Agent boxes -->
  <g transform="translate(300, 70)">
    <rect width="180" height="50" rx="8" fill="#1e293b" stroke="#8b5cf6" stroke-width="1"/>
    <circle cx="25" cy="25" r="12" fill="#8b5cf6" opacity="0.3"/>
    <text x="25" y="29" text-anchor="middle" font-family="system-ui" font-size="10" fill="#8b5cf6">1</text>
    <text x="105" y="22" text-anchor="middle" font-family="system-ui" font-size="11" fill="#f8fafc">Document Parser</text>
    <text x="105" y="38" text-anchor="middle" font-family="system-ui" font-size="9" fill="#64748b">LangChain Agent</text>
  </g>
  
  <path d="M390 130 L390 150" stroke="#8b5cf6" stroke-width="1" stroke-dasharray="3,3"/>
  
  <g transform="translate(300, 155)">
    <rect width="180" height="50" rx="8" fill="#1e293b" stroke="#a855f7" stroke-width="1"/>
    <circle cx="25" cy="25" r="12" fill="#a855f7" opacity="0.3"/>
    <text x="25" y="29" text-anchor="middle" font-family="system-ui" font-size="10" fill="#a855f7">2</text>
    <text x="105" y="22" text-anchor="middle" font-family="system-ui" font-size="11" fill="#f8fafc">Clause Extractor</text>
    <text x="105" y="38" text-anchor="middle" font-family="system-ui" font-size="9" fill="#64748b">RAG + Qdrant</text>
  </g>
  
  <path d="M390 215 L390 235" stroke="#8b5cf6" stroke-width="1" stroke-dasharray="3,3"/>
  
  <g transform="translate(300, 240)">
    <rect width="180" height="50" rx="8" fill="#1e293b" stroke="#c084fc" stroke-width="1"/>
    <circle cx="25" cy="25" r="12" fill="#c084fc" opacity="0.3"/>
    <text x="25" y="29" text-anchor="middle" font-family="system-ui" font-size="10" fill="#c084fc">3</text>
    <text x="105" y="22" text-anchor="middle" font-family="system-ui" font-size="11" fill="#f8fafc">Risk Analyzer</text>
    <text x="105" y="38" text-anchor="middle" font-family="system-ui" font-size="9" fill="#64748b">Multi-Agent</text>
  </g>
  
  <!-- Arrow to output -->
  <path d="M500 180 L560 180" stroke="#8b5cf6" stroke-width="2" stroke-dasharray="5,5"/>
  <polygon points="560,180 550,175 550,185" fill="#8b5cf6"/>
  
  <!-- Output Summary -->
  <g transform="translate(580, 90)">
    <rect width="140" height="180" rx="8" fill="#1e293b" stroke="#8b5cf6" stroke-width="2"/>
    <text x="70" y="25" text-anchor="middle" font-family="system-ui" font-size="11" font-weight="600" fill="#8b5cf6">Due Diligence</text>
    
    <rect x="15" y="45" width="110" height="30" rx="4" fill="#22c55e" opacity="0.15"/>
    <text x="70" y="58" text-anchor="middle" font-family="system-ui" font-size="9" fill="#22c55e">✓ No red flags</text>
    <text x="70" y="70" text-anchor="middle" font-family="system-ui" font-size="8" fill="#64748b">IP Clauses</text>
    
    <rect x="15" y="85" width="110" height="30" rx="4" fill="#f59e0b" opacity="0.15"/>
    <text x="70" y="98" text-anchor="middle" font-family="system-ui" font-size="9" fill="#f59e0b">⚠ Review needed</text>
    <text x="70" y="110" text-anchor="middle" font-family="system-ui" font-size="8" fill="#64748b">Liability</text>
    
    <rect x="15" y="125" width="110" height="30" rx="4" fill="#22c55e" opacity="0.15"/>
    <text x="70" y="138" text-anchor="middle" font-family="system-ui" font-size="9" fill="#22c55e">✓ Standard terms</text>
    <text x="70" y="150" text-anchor="middle" font-family="system-ui" font-size="8" fill="#64748b">Payment</text>
  </g>
  
  <text x="400" y="390" text-anchor="middle" font-family="system-ui" font-size="20" font-weight="600" fill="#f8fafc">Legal Document Analysis</text>
  <text x="400" y="418" text-anchor="middle" font-family="system-ui" font-size="14" fill="#94a3b8">LangChain + Qdrant + Multi-Agent RAG</text>
</svg>
